<svg xmlns="http://www.w3.org/2000/svg" xmlns:xlink="http://www.w3.org/1999/xlink" aria-hidden="true" role="img" class="iconify iconify--logos" width="35.93" height="32" preserveAspectRatio="xMidYMid meet" viewBox="0 0 256 228"><defs><linearGradient id="IconifyId1813088fe1fbc01fb466" x1="-2.778%" y1="32%" x2="100%" y2="67.556%"><stop offset="0%" stop-color="#41D1FF"></stop><stop offset="100%" stop-color="#BD34FE"></stop></linearGradient><linearGradient id="IconifyId1813088fe1fbc01fb467" x1="43.376%" y1="2.242%" x2="50.316%" y2="89.03%"><stop offset="0%" stop-color="#FFEA83"></stop><stop offset="8.333%" stop-color="#FFDD35"></stop><stop offset="100%" stop-color="#FFA800"></stop></linearGradient><linearGradient id="IconifyId1813088fe1fbc01fb468" x1="10.847%" y1="58.458%" x2="83.469%" y2="24.764%"><stop offset="0%" stop-color="#FFEA83"></stop><stop offset="8.333%" stop-color="#FFDD35"></stop><stop offset="100%" stop-color="#FFA800"></stop></linearGradient></defs><path fill="url(#IconifyId1813088fe1fbc01fb466)" d="M210.483 73.824a171.49 171.49 0 0 0-8.24-2.597c.465-1.9.893-3.777 1.273-5.621c6.238-30.281 2.16-54.676-11.769-62.708c-13.355-7.7-35.196.329-57.254 19.526a171.23 171.23 0 0 0-6.375 5.848a155.866 155.866 0 0 0-4.241-3.917C100.759 3.829 77.587-4.822 63.673 3.233C50.33 10.957 46.379 34.68 52.4 64.423c.412 2.969.957 6.058 1.622 9.245a145.52 145.52 0 0 0-7.862-2.467C26.643 67.45 10.71 75.893 10.71 85.318c0 9.426 15.933 17.869 35.45 4.714a145.567 145.567 0 0 0 6.921-3.855c-.665 3.187-1.21 6.276-1.622 9.245c-6.021 29.743-2.07 53.466 11.273 61.19c13.914 8.055 36.086-.596 58.144-19.793a145.307 145.307 0 0 0 4.241-3.917c1.53 1.387 3.181 2.9 4.941 4.525a171.165 171.165 0 0 0 6.375 5.848c22.058 19.197 43.899 27.226 57.254 19.526c13.929-8.032 18.007-32.427 11.769-62.708a171.644 171.644 0 0 0-1.273-5.621c2.82.89 5.604 1.706 8.24 2.597c19.517 13.155 35.45 4.714 35.45-4.714c0-9.425-15.933-17.868-35.45-4.714zM128.068 139.571c-6.321 0-11.443-5.122-11.443-11.443s5.122-11.443 11.443-11.443s11.443 5.122 11.443 11.443s-5.122 11.443-11.443 11.443z"></path><path fill="url(#IconifyId1813088fe1fbc01fb467)" d="M128.068 118.685c-5.253 0-9.514 4.261-9.514 9.514s4.261 9.514 9.514 9.514s9.514-4.261 9.514-9.514s-4.261-9.514-9.514-9.514zm0 15.743c-3.443 0-6.229-2.786-6.229-6.229s2.786-6.229 6.229-6.229s6.229 2.786 6.229 6.229s-2.786 6.229-6.229 6.229z"></path><path fill="url(#IconifyId1813088fe1fbc01fb468)" d="M128.068 125.914c-1.377 0-2.486 1.109-2.486 2.486s1.109 2.486 2.486 2.486s2.486-1.109 2.486-2.486s-1.109-2.486-2.486-2.486z"></path></svg> 